<svg width="256" height="63" viewBox="0 0 256 63" fill="none" xmlns="http://www.w3.org/2000/svg">
<path fill-rule="evenodd" clip-rule="evenodd" d="M35.7676 56.1717C34.037 56.1717 32.4011 55.8202 30.8599 55.1172C29.3456 54.4141 28.1153 53.3731 27.169 51.9941C26.2226 50.6151 25.7494 48.9251 25.7494 46.9242V35.9326C25.7494 35.5811 25.6683 35.2836 25.506 35.0403C25.3708 34.7699 25.1816 34.5671 24.9382 34.4319C24.6948 34.2967 24.4109 34.2291 24.0864 34.2291C23.762 34.2291 23.4645 34.2967 23.1941 34.4319C22.9508 34.5671 22.748 34.7699 22.5858 35.0403C22.4506 35.2836 22.383 35.5811 22.383 35.9326V55.6444H18.1705H14.0277H9.53133C7.61152 55.6444 5.93507 55.2388 4.50197 54.4277C3.06887 53.6165 1.96025 52.5484 1.1761 51.2235C0.391952 49.8715 -0.00012207 48.3843 -0.00012207 46.7619V46.6755H8.76071V46.843C8.76071 47.3568 8.93646 47.8165 9.28798 48.2221C9.66653 48.6006 10.1262 48.7899 10.667 48.7899H14.0277V36.0137C14.0277 34.0398 14.4874 32.3633 15.4067 30.9843C16.3531 29.6053 17.5969 28.5508 19.1382 27.8207C20.6795 27.0906 22.3289 26.7256 24.0864 26.7256C25.844 26.7256 27.4799 27.0906 28.9941 27.8207C30.5084 28.5508 31.7387 29.6053 32.685 30.9843C33.6314 32.3633 34.1046 34.0398 34.1046 36.0137V47.0053C34.1046 47.3568 34.1857 47.6678 34.348 47.9381C34.5102 48.1815 34.713 48.3708 34.9564 48.506C35.1997 48.6412 35.4566 48.7088 35.727 48.7088C36.0244 48.7088 36.3083 48.6412 36.5787 48.506C36.8491 48.3708 37.0655 48.1815 37.2277 47.9381C37.3899 47.6678 37.471 47.3568 37.471 47.0053V36.0137C37.471 34.0398 37.9442 32.3633 38.8906 30.9843C39.837 29.6053 41.0673 28.5508 42.5815 27.8207C44.1228 27.0906 45.7587 26.7256 47.4892 26.7256C49.2198 26.7256 50.8421 27.0906 52.3563 27.8207C53.8706 28.5508 55.1009 29.6053 56.0472 30.9843C56.9936 32.3633 57.4668 34.0398 57.4668 36.0137V37.1288H49.1522V35.8109C49.1522 35.4864 49.071 35.216 48.9088 34.9997C48.7466 34.7563 48.5438 34.5671 48.3004 34.4319C48.057 34.2967 47.7867 34.2291 47.4892 34.2291C47.1918 34.2291 46.9079 34.2967 46.6375 34.4319C46.3671 34.5671 46.1508 34.7563 45.9885 34.9997C45.8533 35.216 45.7857 35.4864 45.7857 35.8109V46.9242C45.7857 48.9251 45.299 50.6151 44.3256 51.9941C43.3792 53.3731 42.1489 54.4141 40.6347 55.1172C39.1205 55.8202 37.4981 56.1717 35.7676 56.1717ZM49.1522 41.4682V45.5175H57.4668V41.4682H49.1522ZM8.76071 42.336H-0.00012207V38.5751H8.76071V42.336ZM49.1522 51.5927V55.6444H57.4668V51.5927H49.1522ZM8.76071 32.4999H-0.00012207V27.2529H8.76071V32.4999Z" fill="url(#paint0_linear_4001_3204)"/>
<path d="M78.1469 29.866C78.1469 29.7093 78.2132 29.5466 78.3458 29.3778C78.4904 29.197 78.6772 29.1066 78.9063 29.1066H83.2819C83.5109 29.1066 83.6917 29.197 83.8243 29.3778C83.9569 29.5466 84.0232 29.7093 84.0232 29.866V50.388H93.6062C93.7508 50.388 93.9075 50.4543 94.0763 50.5869C94.2571 50.7195 94.3475 50.9003 94.3475 51.1293V55.523C94.3475 55.7521 94.2571 55.9329 94.0763 56.0655C93.9075 56.1981 93.7508 56.2644 93.6062 56.2644H82.5225H78.8882C78.6592 56.2644 78.4783 56.1739 78.3458 55.9931C78.2132 55.8244 78.1469 55.6617 78.1469 55.5049V31.6741V29.866ZM104.527 29.1066C104.768 29.1066 104.991 29.197 105.196 29.3778C105.401 29.5466 105.54 29.7093 105.612 29.866L111.036 42.4504L116.479 29.866C116.539 29.7093 116.672 29.5466 116.876 29.3778C117.081 29.197 117.304 29.1066 117.545 29.1066H122.373C122.614 29.1066 122.801 29.197 122.934 29.3778C123.066 29.5466 123.132 29.7093 123.132 29.866V55.5049C123.132 55.6617 123.066 55.8244 122.934 55.9931C122.801 56.1739 122.62 56.2644 122.391 56.2644H117.997C117.756 56.2644 117.57 56.1739 117.437 55.9931C117.316 55.8244 117.256 55.6617 117.256 55.5049V41.9623L112.537 52.829C112.465 52.9857 112.326 53.1484 112.121 53.3171C111.928 53.498 111.711 53.5884 111.47 53.5884H110.602C110.373 53.5884 110.156 53.498 109.951 53.3171C109.746 53.1484 109.608 52.9857 109.536 52.829L104.816 41.9623V55.5049C104.816 55.6617 104.75 55.8244 104.618 55.9931C104.497 56.1739 104.316 56.2644 104.075 56.2644H99.6814C99.4524 56.2644 99.2715 56.1739 99.139 55.9931C99.0064 55.8244 98.9401 55.6617 98.9401 55.5049V29.866C98.9401 29.7093 99.0064 29.5466 99.139 29.3778C99.2836 29.197 99.4704 29.1066 99.6995 29.1066H104.527ZM143.555 39.684C143.723 39.684 143.904 39.7564 144.097 39.901C144.302 40.0336 144.404 40.2204 144.404 40.4615V44.1862C144.404 44.4273 144.302 44.6202 144.097 44.7648C143.904 44.8974 143.723 44.9637 143.555 44.9637H130.211C130.042 44.9637 129.867 44.8974 129.687 44.7648C129.506 44.6322 129.415 44.4394 129.415 44.1862V40.4615C129.415 40.2084 129.506 40.0155 129.687 39.8829C129.867 39.7503 130.042 39.684 130.211 39.684H143.555ZM172.249 56.2644H150.986C150.817 56.2644 150.642 56.1981 150.462 56.0655C150.281 55.9329 150.19 55.74 150.19 55.4869V51.7622C150.19 51.509 150.281 51.3162 150.462 51.1836C150.642 51.051 150.817 50.9847 150.986 50.9847H167.223V37.677H150.986C150.817 37.677 150.642 37.6107 150.462 37.4782C150.281 37.3456 150.19 37.1527 150.19 36.8996V33.1749C150.19 32.9217 150.281 32.7289 150.462 32.5963C150.642 32.4637 150.817 32.3974 150.986 32.3974H172.249C172.418 32.3974 172.599 32.4697 172.792 32.6144C172.997 32.7469 173.099 32.9338 173.099 33.1749V55.4869C173.099 55.7279 172.997 55.9148 172.792 56.0474C172.599 56.192 172.418 56.2644 172.249 56.2644ZM198.873 44.2947C199.114 44.2947 199.331 44.3851 199.524 44.5659C199.729 44.7347 199.868 44.8974 199.94 45.0541L203.231 52.5035C203.315 52.624 203.327 52.7807 203.267 52.9736C203.207 53.1665 203.056 53.2629 202.815 53.2629H198.277C198.035 53.2629 197.812 53.1785 197.608 53.0098C197.403 52.829 197.264 52.6602 197.192 52.5035L193.919 45.0541C193.835 44.9336 193.823 44.7769 193.883 44.584C193.943 44.3911 194.088 44.2947 194.317 44.2947H198.873ZM202.074 38.0929C202.074 38.3219 201.989 38.5329 201.82 38.7257C201.652 38.9186 201.483 39.0633 201.314 39.1597L193.232 43.7884V55.4688C193.232 55.6375 193.166 55.8123 193.033 55.9931C192.9 56.1739 192.708 56.2644 192.454 56.2644H188.73C188.477 56.2644 188.284 56.1739 188.151 55.9931C188.019 55.8123 187.952 55.6375 187.952 55.4688V46.808L178.858 51.9972C178.737 52.0937 178.58 52.1117 178.387 52.0515C178.195 51.9912 178.098 51.8405 178.098 51.5994V46.6814C178.098 46.2836 178.351 45.928 178.858 45.6146L192.726 37.677H178.839C178.671 37.677 178.496 37.6107 178.315 37.4782C178.134 37.3456 178.044 37.1527 178.044 36.8996V33.1749C178.044 32.9217 178.134 32.7289 178.315 32.5963C178.496 32.4637 178.671 32.3974 178.839 32.3974H187.952V29.2694C187.952 29.1006 188.019 28.9198 188.151 28.7269C188.296 28.522 188.489 28.4196 188.73 28.4196H192.454C192.696 28.4196 192.882 28.522 193.015 28.7269C193.16 28.9198 193.232 29.1006 193.232 29.2694V32.3974H201.224C201.393 32.3974 201.573 32.4697 201.766 32.6144C201.971 32.7469 202.074 32.9338 202.074 33.1749V38.0929ZM217.831 38.5811H211.412L210.363 42.0527C210.327 42.2094 210.201 42.3781 209.984 42.5589C209.767 42.7277 209.538 42.8121 209.297 42.8121H204.74C204.354 42.8121 204.222 42.5589 204.342 42.0527L208.212 29.179C208.248 29.0343 208.374 28.8716 208.591 28.6908C208.808 28.51 209.037 28.4196 209.279 28.4196H213.835C214.004 28.4196 214.124 28.4678 214.197 28.5642C214.269 28.6606 214.299 28.7691 214.287 28.8897C214.275 28.9981 214.257 29.0946 214.233 29.179L213.003 33.3014H224.412C224.653 33.3014 224.822 33.3918 224.919 33.5726C225.027 33.7535 225.057 33.9162 225.009 34.0608L218.861 55.5049C218.825 55.6617 218.723 55.8244 218.554 55.9931C218.385 56.1739 218.186 56.2644 217.957 56.2644H213.564C213.323 56.2644 213.154 56.1739 213.057 55.9931C212.973 55.8244 212.949 55.6617 212.985 55.5049L217.831 38.5811ZM227.965 55.4688V31.9815C227.965 31.8128 228.031 31.632 228.164 31.4391C228.308 31.2342 228.501 31.1317 228.742 31.1317H232.467C232.708 31.1317 232.895 31.2342 233.028 31.4391C233.172 31.632 233.245 31.8128 233.245 31.9815V37.2973L245.612 42.8121C245.769 42.8844 245.931 43.023 246.1 43.2279C246.281 43.4328 246.371 43.6498 246.371 43.8788V48.4353C246.371 48.6763 246.275 48.827 246.082 48.8873C245.889 48.9355 245.733 48.9174 245.612 48.833L233.245 43.3364V55.4688C233.245 55.6375 233.178 55.8123 233.046 55.9931C232.913 56.1739 232.72 56.2644 232.467 56.2644H228.742C228.489 56.2644 228.296 56.1739 228.164 55.9931C228.031 55.8123 227.965 55.6375 227.965 55.4688Z" fill="url(#paint1_linear_4001_3204)"/>
<path d="M5.26761 8.01127H12.5336L12.3232 9.50855H5.05718L5.26761 8.01127ZM2.3129 10.5067H14.8569L14.6367 12.0733H2.09272L2.3129 10.5067ZM5.52554 11.7545H7.34554C6.71713 14.3331 5.78794 16.1632 1.95555 17.1336C1.8499 16.69 1.51332 15.9968 1.18403 15.6502C4.4894 14.9431 5.0486 13.6538 5.52554 11.7545ZM9.17456 11.4911H10.8686L10.3931 14.8738C10.3308 15.3175 10.4051 15.3868 10.8951 15.3868C11.1191 15.3868 12.0291 15.3868 12.2951 15.3868C12.7571 15.3868 12.8742 15.1511 13.1348 13.6954C13.4337 13.9588 14.1247 14.2222 14.5431 14.3331C14.0907 16.3572 13.5686 16.8841 12.2386 16.8841C11.9166 16.8841 10.7686 16.8841 10.4466 16.8841C8.80862 16.8841 8.48482 16.3988 8.69525 14.9016L9.17456 11.4911ZM8.54902 4.08783H10.341L9.98835 6.59716H8.19635L8.54902 4.08783ZM3.27997 5.41875H15.306L14.8422 8.71832H13.0362L13.2798 6.98535H4.7678L4.52424 8.71832H2.81624L3.27997 5.41875ZM23.2108 5.65443C21.8189 7.29035 19.4139 9.16196 16.9406 10.4236C16.7711 10.0354 16.3809 9.42537 16.0656 9.07878C18.6431 7.87263 21.2112 5.73761 22.4888 4.01851H24.2388C25.4367 6.15352 27.4635 7.96968 29.557 8.91241C29.0766 9.34219 28.6206 9.89674 28.2405 10.4097C26.2502 9.23128 24.169 7.30422 23.2108 5.65443ZM17.537 12.1565H27.113L26.9104 13.5984H17.3344L17.537 12.1565ZM18.6816 9.09264H26.8996L26.6951 10.5483H18.4771L18.6816 9.09264ZM15.9786 15.2759H27.9346L27.7262 16.7593H15.7702L15.9786 15.2759ZM21.7541 9.74424H23.5321L22.6377 16.1077H20.8597L21.7541 9.74424ZM38.6116 4.25419H40.3056L38.5014 17.092H36.8074L38.6116 4.25419ZM34.8853 8.45491H42.9073L42.691 9.99378H34.669L34.8853 8.45491ZM33.846 11.8654H43.002L42.7857 13.4043H33.6297L33.846 11.8654ZM35.2895 5.28011L36.7755 4.76715C37.1389 5.66829 37.4734 6.87444 37.5303 7.66467L35.9345 8.26082C35.9037 7.48445 35.617 6.23671 35.2895 5.28011ZM41.9991 4.65624L43.6373 5.25238C42.9713 6.30603 42.2515 7.44285 41.6983 8.1915L40.4003 7.66467C40.9353 6.84671 41.6166 5.58511 41.9991 4.65624ZM34.0411 4.10169L35.5389 4.60078C34.2557 6.95762 32.3669 9.43923 30.5508 11.0058C30.4653 10.6177 30.1459 9.70265 29.9224 9.3006C31.4278 8.05286 33.0064 6.08421 34.0411 4.10169ZM32.1574 7.94195L33.9615 6.36148L33.9735 6.37535L32.4732 17.0504H30.8772L32.1574 7.94195ZM47.5604 10.9088H53.3564L53.181 12.1565H47.385L47.5604 10.9088ZM45.6418 12.9052H54.7558L54.5746 14.1945H45.4606L45.6418 12.9052ZM49.5685 11.4633H51.0945L50.9581 12.4338C50.7301 14.0559 49.9276 16.08 45.0896 17.1336C44.9423 16.787 44.5422 16.2463 44.2332 15.9552C48.6119 15.0818 49.2723 13.5706 49.4379 12.3922L49.5685 11.4633ZM50.8614 13.3211C51.3747 14.7491 52.8616 15.5254 55.2944 15.7472C54.9276 16.0661 54.4498 16.6761 54.2094 17.092C51.5219 16.69 50.0958 15.5809 49.4702 13.5568L50.8614 13.3211ZM44.4191 8.954H57.1871L57.002 10.2711H44.234L44.4191 8.954ZM46.2358 6.98535H56.0218L55.8406 8.27468H46.0546L46.2358 6.98535ZM46.0065 5.03056H56.8285L56.6473 6.31989H45.8253L46.0065 5.03056ZM52.9067 7.2349C53.3809 9.43923 54.7796 11.2415 57.0186 12.0456C56.6079 12.3784 56.0282 13.0161 55.7298 13.4459C53.3719 12.3922 52.0262 10.3127 51.458 7.58149L52.9067 7.2349ZM50.257 4.07396L51.9494 4.18487C50.9854 7.95581 48.9346 11.4911 44.6122 13.5568C44.4447 13.1547 44.0086 12.5724 43.6377 12.3229C47.7631 10.5622 49.5572 7.35967 50.257 4.07396ZM62.1675 10.6731C63.2257 13.4043 66.0536 14.9986 70.4915 15.4977C70.0589 15.8859 69.4897 16.6484 69.1855 17.1198C64.561 16.4543 61.8541 14.5966 60.5095 11.2138L62.1675 10.6731ZM59.4259 9.16196H68.3999L68.1719 10.784H59.1979L59.4259 9.16196ZM59.1978 5.90398H71.1958L70.9639 7.55376H58.9659L59.1978 5.90398ZM64.565 4.07396H66.315L65.4966 9.89674H63.7466L64.565 4.07396ZM67.8539 9.16196H68.2179L68.5197 9.1065L69.6022 9.77196C67.2909 14.2638 62.9324 16.2879 57.9614 17.092C57.8697 16.6484 57.5468 15.8582 57.2774 15.4838C62.0671 14.8738 66.0071 13.2379 67.811 9.46696L67.8539 9.16196ZM77.1911 7.87263H84.9191L84.7359 9.17582H77.0079L77.1911 7.87263ZM76.6243 9.81356H85.0803L84.8913 11.1583H76.4353L76.6243 9.81356ZM78.1774 11.7129H82.9094L82.7399 12.919H78.0079L78.1774 11.7129ZM77.7375 6.37535L79.0602 6.02875C79.2141 6.52785 79.3967 7.22103 79.4642 7.63695L78.0618 8.05286C78.0242 7.62308 77.8735 6.90217 77.7375 6.37535ZM80.2086 6.1258L81.5558 5.90398C81.6338 6.44466 81.6865 7.16558 81.6961 7.59536L80.2691 7.88649C80.2895 7.44285 80.2687 6.69421 80.2086 6.1258ZM84.5332 4.14328L85.2998 5.36329C83.1114 5.79307 80.0581 6.00102 77.5342 6.02875C77.5569 5.66829 77.4509 5.12761 77.3436 4.79488C79.8314 4.72556 82.7326 4.50374 84.5332 4.14328ZM79.4328 12.6418C80.1569 14.2638 82.0069 15.3452 84.5684 15.7472C84.1856 16.08 83.664 16.7038 83.3955 17.1198C80.6913 16.5375 78.9102 15.165 78.0343 13.0299L79.4328 12.6418ZM83.5108 5.64057L85.0024 6.08421C84.3656 6.9299 83.6509 7.83104 83.1052 8.42718L82.0016 8.01127C82.5132 7.35967 83.1575 6.36148 83.5108 5.64057ZM82.5734 11.7129H82.8814L83.1532 11.6713L84.0126 12.0318C82.7677 15.0125 80.521 16.4543 77.7675 17.1198C77.6482 16.7732 77.2859 16.1632 77.0309 15.8859C79.6071 15.3868 81.5728 14.25 82.5422 11.9347L82.5734 11.7129ZM78.7561 8.69059H80.3661C79.7271 11.6436 78.794 15.0956 75.4793 17.0643C75.3098 16.6761 74.9219 16.1493 74.5689 15.872C77.5626 14.1945 78.2332 11.1167 78.7561 8.69059ZM71.7826 11.4911C72.9376 11.2415 74.652 10.7979 76.3084 10.3681L76.308 11.8654C74.7616 12.309 73.1173 12.7527 71.7926 13.1131L71.7826 11.4911ZM72.6228 6.70808H76.9068L76.6924 8.23309H72.4084L72.6228 6.70808ZM74.475 4.08783H76.015L74.4348 15.3313C74.3257 16.1077 74.1253 16.5375 73.6563 16.787C73.1992 17.0504 72.5894 17.1059 71.6794 17.1059C71.6959 16.69 71.5954 16.0107 71.4637 15.5531C71.9638 15.5809 72.4538 15.5809 72.6237 15.567C72.7917 15.567 72.8676 15.5254 72.8948 15.3313L74.475 4.08783ZM87.6648 4.57306H94.0628L93.8602 6.01489H87.4622L87.6648 4.57306ZM86.7797 7.48445H93.9757L93.7711 8.94014H86.5751L86.7797 7.48445ZM85.582 15.1095H98.252L98.0357 16.6484H85.3657L85.582 15.1095ZM87.3643 12.4893H97.2203L97.0098 13.9865H87.1538L87.3643 12.4893ZM91.4229 5.12761H92.9909L92.079 11.6158H90.511L91.4229 5.12761ZM91.5782 11.394H93.3142L92.6323 16.2463H90.8962L91.5782 11.394ZM94.93 4.87806H96.456L95.7954 9.57787H94.2694L94.93 4.87806ZM97.5816 4.24033H99.1776L98.3437 10.174C98.2345 10.9504 98.04 11.3386 97.4749 11.5743C96.9237 11.8099 96.2058 11.8377 95.2258 11.8377C95.2162 11.4079 95.0799 10.784 94.9144 10.3681C95.5545 10.3958 96.2405 10.3958 96.4524 10.382C96.6484 10.382 96.7262 10.3265 96.7516 10.1463L97.5816 4.24033ZM88.703 5.15534H90.243L89.8962 7.62308C89.6818 9.1481 89.0365 10.9504 86.9444 11.9902C86.7773 11.6852 86.291 11.0613 86.0141 10.8395C87.8449 9.96606 88.2022 8.71832 88.362 7.58149L88.703 5.15534Z" fill="#444444"/>
<path d="M111.76 15.8541L113.212 5.52556H115.718L114.559 13.7745H118.619L118.326 15.8541H111.76ZM120.128 15.8541L121.579 5.52556H124.085L122.634 15.8541H120.128ZM125.022 15.8541L126.474 5.52556H129.022L130.916 10.4749L131.617 12.7624H131.687C131.715 11.6672 131.713 10.1838 131.886 8.94991L132.368 5.52556H134.748L133.296 15.8541H130.748L128.872 10.877L128.167 8.61718H128.097C128.048 9.76787 128.059 11.182 127.883 12.4297L127.402 15.8541H125.022ZM135.714 15.8541L137.165 5.52556H143.773L143.483 7.59126H139.381L139.112 9.50446H142.598L142.306 11.584H138.82L138.512 13.7745H142.768L142.476 15.8541H135.714ZM143.181 18.3911L148.216 4.58282H149.826L144.805 18.3911H143.181ZM149.723 15.8541L150.831 7.96558H152.861L152.903 8.96377H152.945C153.695 8.31217 154.457 7.77149 155.535 7.77149C156.641 7.77149 157.248 8.22899 157.535 9.07468C158.319 8.38149 159.147 7.77149 160.211 7.77149C161.947 7.77149 162.529 9.00536 162.252 10.974L161.567 15.8541H159.075L159.718 11.279C159.872 10.1838 159.634 9.87878 159.004 9.87878C158.64 9.87878 158.175 10.1006 157.631 10.5858L156.891 15.8541H154.399L155.042 11.279C155.196 10.1838 154.944 9.87878 154.314 9.87878C153.95 9.87878 153.485 10.1006 152.955 10.5858L152.215 15.8541H149.723ZM165.506 16.0481C164.036 16.0481 163.292 14.9668 163.477 13.6497C163.711 11.9861 165.154 11.0849 168.309 10.7522C168.342 10.1145 168.059 9.74014 167.247 9.74014C166.617 9.74014 165.924 9.98969 165.063 10.4333L164.423 8.81127C165.561 8.1874 166.753 7.77149 167.999 7.77149C170.057 7.77149 171.06 8.90831 170.713 11.3761L170.084 15.8541H168.054L167.997 15.0638H167.927C167.187 15.6461 166.388 16.0481 165.506 16.0481ZM166.629 14.1349C167.133 14.1349 167.502 13.8993 167.921 13.5111L168.098 12.2495C166.517 12.4436 165.949 12.9011 165.871 13.4556C165.806 13.9131 166.111 14.1349 166.629 14.1349ZM172.008 15.8541L173.116 7.96558H175.608L174.5 15.8541H172.008ZM174.516 6.87034C173.676 6.87034 173.201 6.37125 173.31 5.59488C173.417 4.83237 174.033 4.33328 174.873 4.33328C175.699 4.33328 176.189 4.83237 176.082 5.59488C175.973 6.37125 175.342 6.87034 174.516 6.87034ZM178.747 16.0481C177.039 16.0481 176.634 14.939 176.866 13.2893L178.063 4.77692H180.555L179.347 13.3724C179.273 13.8993 179.489 14.0518 179.685 14.0518C179.769 14.0518 179.825 14.0518 179.969 14.024L180.008 15.8402C179.726 15.9511 179.307 16.0481 178.747 16.0481ZM198.093 7.14762C197.832 7.41103 197.607 7.61898 197.454 7.81308C196.076 9.64309 193.578 12.1802 191.369 13.6497L189.895 12.0831C191.677 10.9601 193.341 9.28264 194.244 8.0349C193.026 8.0349 188.532 8.0349 187.314 8.0349C186.74 8.0349 185.889 8.11808 185.575 8.15967L185.906 5.80283C186.26 5.87215 187.131 5.95533 187.607 5.95533C188.587 5.95533 193.487 5.95533 195.041 5.95533C195.671 5.95533 196.24 5.88602 196.606 5.77511L198.093 7.14762ZM189.328 13.8299C188.629 13.0258 187.481 11.8336 186.686 11.2097L188.681 9.76787C189.407 10.3779 190.537 11.4038 191.499 12.4297C192.324 13.3309 193.266 14.4954 193.862 15.3411L191.637 16.9216C191.136 16.1036 190.121 14.7588 189.328 13.8299ZM199.485 9.19945C200.039 9.24104 201.207 9.2965 201.893 9.2965C203.895 9.2965 207.955 9.2965 209.327 9.2965C209.957 9.2965 210.653 9.22718 211.063 9.19945L210.691 11.8474C210.329 11.8336 209.554 11.7642 208.98 11.7642C207.594 11.7642 203.534 11.7642 201.546 11.7642C200.748 11.7642 199.692 11.8058 199.113 11.8474L199.485 9.19945ZM219.449 4.91555C219.214 5.28987 218.928 5.83056 218.759 6.13556C218.39 6.87034 217.742 7.99331 217.297 8.67263C216.583 9.76787 215.49 11.0711 214.417 11.9306L212.468 10.6551C213.567 9.9065 214.569 8.75581 215.254 7.86853C215.718 7.25853 216.087 6.52375 216.343 5.99693C216.597 5.48397 216.809 4.87396 216.903 4.40259L219.449 4.91555ZM216.702 6.9258C217.948 6.9258 222.946 6.9258 224.052 6.9258C224.416 6.9258 225.106 6.89807 225.608 6.81489L225.286 9.10241C224.72 9.04695 224.076 9.04695 223.754 9.04695C222.634 9.04695 217.664 9.04695 216.25 9.04695L216.702 6.9258ZM222.185 8.15967C221.54 12.1524 219.74 14.9945 216.681 16.7413L214.611 15.2302C215.204 14.9945 215.779 14.6895 216.156 14.3984C218.017 13.109 219.332 11.2236 219.819 8.15967H222.185ZM230.135 9.36582L229.401 14.5925H227.455L227.928 11.2236H226.472L226.733 9.36582H230.135ZM229.512 13.8022C229.853 14.6618 230.656 15.0222 231.965 15.0777C233.703 15.1609 237.083 15.1193 239.194 14.939C238.906 15.3966 238.467 16.3254 238.289 16.8938C236.442 16.9909 233.456 17.0186 231.676 16.9354C230.103 16.8661 229.104 16.5057 228.426 15.452C227.822 15.965 227.208 16.4502 226.41 17.0463L225.754 15.0361C226.377 14.6895 227.096 14.2597 227.748 13.8022H229.512ZM227.277 5.49783L228.991 4.361C229.675 4.97101 230.514 5.87215 230.871 6.52375L229.012 7.79921C228.727 7.13375 227.937 6.17715 227.277 5.49783ZM234.515 5.99693H236.489L235.252 14.8004H233.278L234.515 5.99693ZM232.795 10.8631L232.748 11.1958H236.85L236.897 10.8631H232.795ZM232.998 9.42127L232.951 9.754H237.053L237.1 9.42127H232.998ZM231.443 8.22899H239.073L238.489 12.3881H230.859L231.443 8.22899ZM231.351 4.40259H240.283L240.006 6.37125H238.13L238.21 5.80283H232.932L232.852 6.37125H231.074L231.351 4.40259ZM231.497 6.55148H239.449L239.258 7.91012H231.306L231.497 6.55148ZM230.13 12.6931H239.216L239.015 14.1211H229.929L230.13 12.6931ZM243.951 4.90169H252.281L252.012 6.81489H243.682L243.951 4.90169ZM243.505 8.07649H251.891L251.628 9.9481H243.242L243.505 8.07649ZM243.049 11.3206H251.505L251.238 13.2199H242.782L243.049 11.3206ZM242.775 4.90169H244.791L244.093 9.86491C243.774 12.1386 243.022 15.3966 241.011 17.2543C240.741 16.88 239.997 16.2006 239.584 15.9511C241.342 14.3013 241.804 11.8058 242.079 9.85105L242.775 4.90169ZM251.595 4.90169H253.625L252.218 14.9113C252.078 15.9095 251.794 16.4363 251.135 16.7413C250.446 17.0602 249.572 17.1018 248.328 17.0879C248.334 16.5472 248.149 15.6738 247.955 15.1609C248.633 15.2163 249.545 15.2025 249.797 15.2025C250.049 15.2025 250.159 15.1193 250.192 14.8836L251.595 4.90169ZM246.936 5.67806H248.994L247.406 16.977H245.348L246.936 5.67806Z" fill="#444444"/>
<defs>
<linearGradient id="paint0_linear_4001_3204" x1="-0.00012207" y1="41.4486" x2="57.4668" y2="41.4486" gradientUnits="userSpaceOnUse">
<stop stop-color="#11998E"/>
<stop offset="1" stop-color="#38EF7D"/>
</linearGradient>
<linearGradient id="paint1_linear_4001_3204" x1="75.8687" y1="39.5098" x2="249.176" y2="39.5098" gradientUnits="userSpaceOnUse">
<stop stop-color="#38EF7D"/>
<stop offset="1" stop-color="#11998E"/>
</linearGradient>
</defs>
</svg>
